<svg xmlns="http://www.w3.org/2000/svg" viewBox="0 0 120 66"><g stroke="#2FD480" stroke-width="2.4" stroke-linecap="round" opacity=".7"><line x1="6" y1="34" x2="20" y2="34"/><line x1="0" y1="40" x2="16" y2="40"/></g><path d="M2 56 C40 53 90 53 118 54" stroke="#00A65A" stroke-width="3.4" fill="none" stroke-linecap="round"/><path d="M58 38 C44 30 32 32 24 42 C32 42 38 45 44 47 C50 44 55 42 59 42 Z" fill="#2FD480"/><path d="M28 54 L30 49 Q32 46 40 46 L58 40 L78 41 Q96 42 110 50 Q112 52 108 54 Z" fill="#00A65A"/><path d="M58 41 L70 35 L84 41 Z" fill="#CFEFDD"/><circle cx="50" cy="54" r="7" fill="#0B2920"/><circle cx="50" cy="54" r="2.5" fill="#EAF6EF"/><circle cx="94" cy="54" r="7" fill="#0B2920"/><circle cx="94" cy="54" r="2.5" fill="#EAF6EF"/><path d="M54 49 L52 41 Q54 38 58 38 Q62 38 64 41 L62 49 Z" fill="#0B2920"/><circle cx="58" cy="33" r="6.5" fill="#FFE0BE"/><path d="M51.5 32 Q51.5 25 58 25 Q64.5 25 64.5 32 Q61 28 58 29 Q55 28 51.5 32 Z" fill="#0B2920"/><circle cx="54.6" cy="33" r="1.1" fill="#0B2920"/><circle cx="61.4" cy="33" r="1.1" fill="#0B2920"/><path d="M54.4 36.2 Q58 39.4 61.6 36.2" stroke="#0B2920" stroke-width="1.4" fill="none" stroke-linecap="round"/></svg>