<svg xmlns="http://www.w3.org/2000/svg" viewBox="0 0 120 66"><g stroke="#2FD480" stroke-width="2.4" stroke-linecap="round" opacity=".7"><line x1="6" y1="34" x2="20" y2="34"/><line x1="0" y1="40" x2="16" y2="40"/></g><path d="M2 56 C40 53 90 53 118 54" stroke="#00A65A" stroke-width="3.4" fill="none" stroke-linecap="round"/><path d="M58 38 C44 30 32 32 24 42 C32 42 38 45 44 47 C50 44 55 42 59 42 Z" fill="#2FD480"/><path d="M30 54 L30 40 Q30 34 38 34 L52 34 L52 26 L86 26 Q92 26 94 34 L100 40 L104 44 Q108 45 108 50 L108 52 Q108 54 103 54 Z" fill="#00A65A"/><rect x="56" y="30" width="22" height="9" rx="2" fill="#CFEFDD"/><circle cx="48" cy="54" r="8.5" fill="#0B2920"/><circle cx="48" cy="54" r="4.0" fill="#EAF6EF"/><circle cx="96" cy="54" r="8.5" fill="#0B2920"/><circle cx="96" cy="54" r="4.0" fill="#EAF6EF"/><path d="M63 38 L61 30 Q63 27 67 27 Q71 27 73 30 L71 38 Z" fill="#0B2920"/><circle cx="67" cy="22" r="6.5" fill="#FFE0BE"/><path d="M60 28 Q59 15 67 15 Q75 15 74 28 Q72 21 72 19 Q67 16 62 19 Q62 21 60 28 Z" fill="#0B2920"/><circle cx="63.6" cy="22" r="1.1" fill="#0B2920"/><circle cx="70.4" cy="22" r="1.1" fill="#0B2920"/><path d="M63.4 25.2 Q67 28.4 70.6 25.2" stroke="#0B2920" stroke-width="1.4" fill="none" stroke-linecap="round"/></svg>