<svg xmlns="http://www.w3.org/2000/svg" viewBox="0 0 120 66"><g stroke="#2FD480" stroke-width="2.4" stroke-linecap="round" opacity=".7"><line x1="6" y1="34" x2="20" y2="34"/><line x1="0" y1="40" x2="16" y2="40"/></g><path d="M2 56 C40 53 90 53 118 54" stroke="#00A65A" stroke-width="3.4" fill="none" stroke-linecap="round"/><path d="M58 38 C44 30 32 32 24 42 C32 42 38 45 44 47 C50 44 55 42 59 42 Z" fill="#2FD480"/><path d="M38 54 L38 47 Q38 43 43 43 L47 43 L53 35 L55 35 L57 44 L75 44 L78 35 L80 35 L86 43 L97 43 Q102 43 102 48 L102 51 Q102 54 97 54 Z" fill="#00A65A"/><circle cx="52" cy="54" r="7" fill="#0B2920"/><circle cx="52" cy="54" r="2.5" fill="#EAF6EF"/><circle cx="90" cy="54" r="7" fill="#0B2920"/><circle cx="90" cy="54" r="2.5" fill="#EAF6EF"/><path d="M61 44 L59 36 Q61 33 65 33 Q69 33 71 36 L69 44 Z" fill="#0B2920"/><circle cx="65" cy="28" r="6.5" fill="#FFE0BE"/><path d="M58.5 27 Q58.5 20 65 20 Q71.5 20 71.5 27 Q68 23 65 24 Q62 23 58.5 27 Z" fill="#0B2920"/><circle cx="61.6" cy="28" r="1.1" fill="#0B2920"/><circle cx="68.4" cy="28" r="1.1" fill="#0B2920"/><path d="M61.4 31.2 Q65 34.4 68.6 31.2" stroke="#0B2920" stroke-width="1.4" fill="none" stroke-linecap="round"/></svg>