<svg xmlns="http://www.w3.org/2000/svg" viewBox="0 0 120 66"><g stroke="#2FD480" stroke-width="2.4" stroke-linecap="round" opacity=".7"><line x1="6" y1="34" x2="20" y2="34"/><line x1="0" y1="40" x2="16" y2="40"/></g><path d="M2 56 C40 53 90 53 118 54" stroke="#00A65A" stroke-width="3.4" fill="none" stroke-linecap="round"/><path d="M32 54 L32 42 L46 30 Q49 27 54 27 L80 27 Q86 27 90 33 L100 42 Q106 44 106 50 L106 52 Q106 54 101 54 Z" fill="#00A65A"/><path d="M48 41 L57 31 L70 31 L70 41 Z" fill="#CFEFDD"/><rect x="74" y="32" width="14" height="9" rx="2" fill="#CFEFDD"/><circle cx="62" cy="37" r="5.5" fill="#FFE0BE"/><path d="M56 41 Q55.5 30 62 30 Q68.5 30 68 41 Q66 35 66 33 Q62 30 58 33 Q58 35 56 41 Z" fill="#0B2920"/><circle cx="60" cy="37" r="0.9" fill="#0B2920"/><circle cx="64" cy="37" r="0.9" fill="#0B2920"/><path d="M60 39.4 Q62 41 64 39.4" stroke="#0B2920" stroke-width="1.1" fill="none" stroke-linecap="round"/><circle cx="50" cy="54" r="7" fill="#0B2920"/><circle cx="50" cy="54" r="2.5" fill="#EAF6EF"/><circle cx="92" cy="54" r="7" fill="#0B2920"/><circle cx="92" cy="54" r="2.5" fill="#EAF6EF"/></svg>