<svg xmlns="http://www.w3.org/2000/svg" viewBox="108 44 118 50"><g stroke="#2FD480" stroke-width="2.4" stroke-linecap="round" opacity=".75"><line x1="120" y1="74" x2="134" y2="74"/><line x1="114" y1="80" x2="130" y2="80"/><line x1="126" y1="68" x2="138" y2="68"/></g>
<path d="M4 84 C70 80 150 80 232 82" stroke="#00A65A" stroke-width="4" fill="none" stroke-linecap="round"/>
<path d="M170 64 C156 56 144 58 136 68 C144 68 150 71 156 73 C162 70 167 68 171 68 Z" fill="#2FD480"/>
<path d="M150 80 L150 73 Q150 69 155 69 L159 69 L165 61 L167 61 L169 70 L187 70 L190 61 L192 61 L198 69 L209 69 Q214 69 214 74 L214 77 Q214 80 209 80 Z" fill="#00A65A"/>
<circle cx="164" cy="80" r="7.5" fill="#0B2920"/><circle cx="164" cy="80" r="3" fill="#EAF6EF"/>
<circle cx="202" cy="80" r="7.5" fill="#0B2920"/><circle cx="202" cy="80" r="3" fill="#EAF6EF"/>
<path d="M173 70 L171 62 Q173 59 177 59 Q181 59 183 62 L181 70 Z" fill="#0B2920"/>
<circle cx="177" cy="54" r="6.5" fill="#FFE0BE"/>
<circle cx="174.6" cy="53" r="0.95" fill="#0B2920"/><circle cx="179.4" cy="53" r="0.95" fill="#0B2920"/>
<path d="M174 56.4 Q177 59 180 56.4" stroke="#0B2920" stroke-width="1.3" fill="none" stroke-linecap="round"/></svg>