<svg xmlns="http://www.w3.org/2000/svg" viewBox="0 0 240 112"><rect x="-20" y="-10" width="280" height="132" fill="#0B2920"/><path d="M27.52650927734375 50.0V14.36H36.243653076171874V50.0ZM5.08568603515625 50.0V14.36H13.802829833984374V50.0ZM10.879137207031249 35.6205751953125V28.46171240234375H31.468529052734375V35.6205751953125ZM53.84511743164063 50.756Q50.0728232421875 50.756 47.29953894042969 49.7184248046875Q44.52625463867188 48.680849609375 42.68254553222657 46.76384631347656Q40.83883642578125 44.846843017578124 39.92469921875001 42.193130615234374Q39.010562011718754 39.539418212890624 39.010562011718754 36.30714379882812Q39.010562011718754 33.04400659179687 39.91698681640625 30.205150390625Q40.823411621093754 27.366294189453125 42.60926452636719 25.241006591796875Q44.39511743164063 23.115718994140625 47.07582983398438 21.92385949707031Q49.75654223632813 20.732 53.27426123046875 20.732Q56.791980224609375 20.732 59.410980224609375 21.908431396484374Q62.029980224609375 23.08486279296875 63.688548828125 25.291150390625Q65.34711743164063 27.49743798828125 66.00668273925781 30.544578491210935Q66.666248046875 33.59171899414062 66.25738525390625 37.35628100585937L44.61884301757813 37.587712402343755V32.95913720703125L60.57963989257813 32.750849609374995L58.30396044921875 35.1345751953125Q58.65881665039063 32.527150390624996 58.084107543945315 30.826150390624996Q57.5093984375 29.125150390625 56.27511743164062 28.295862792968748Q55.04083642578125 27.4665751953125 53.335973632812504 27.4665751953125Q51.39968603515625 27.4665751953125 50.05740502929687 28.4925751953125Q48.715124023437504 29.5185751953125 48.04398681640625 31.427859497070312Q47.372849609375 33.33714379882812 47.372849609375 36.0294248046875Q47.372849609375 40.434281005859376 49.10855541992188 42.43228100585938Q50.84426123046875 44.43028100585938 53.837405029296875 44.43028100585938Q55.225973632812504 44.43028100585938 56.15168603515625 44.059996704101565Q57.0773984375 43.68971240234375 57.66368273925781 43.06871240234375Q58.24996704101562 42.447712402343754 58.54310754394531 41.63385290527344Q58.836248046875 40.819993408203125 58.93652905273438 39.93284301757812L66.68167944335937 41.07453564453125Q66.50426123046876 42.97996044921875 65.72898352050782 44.71567944335938Q64.95370581054688 46.4513984375 63.441709106445316 47.80912072753907Q61.92971240234375 49.166843017578124 59.57299340820313 49.96142150878906Q57.216274414062504 50.756 53.84511743164063 50.756ZM69.05511743164062 50.0V35.82881665039062V21.488H76.33741162109375L76.42998022460938 31.8406015625H77.26311083984376Q77.61796704101563 27.767444580078124 78.62467944335938 25.36443798828125Q79.63139184570313 22.961431396484375 81.37095385742188 21.900715698242188Q83.11051586914063 20.84 85.57135229492188 20.84Q86.23479028320313 20.84 86.97922827148437 20.97114709472656Q87.72366625976562 21.102294189453126 88.56452905273437 21.41858837890625L88.19424145507813 30.860882568359376Q87.19137866210937 30.344019775390624 86.13451916503907 30.116444580078124Q85.07765966796876 29.888869384765623 84.20594067382814 29.888869384765623Q82.26194726562501 29.888869384765623 80.87338195800783 30.768300781249998Q79.48481665039063 31.647732177734376 78.70953564453126 33.39887927246094Q77.93425463867189 35.1500263671875 77.7799736328125 37.75745776367187V50.0Z" fill="#FFFFFF"/><path d="M103.504548828125 50.756Q99.24626782226562 50.756 95.98312731933594 49.09357189941406Q92.71998681640625 47.431143798828124 90.8762744140625 44.09471569824218Q89.03256201171875 40.75828759765625 89.03256201171875 35.73628759765625Q89.03256201171875 30.62171240234375 90.91099011230469 27.30071240234375Q92.78941821289062 23.97971240234375 96.07955871582031 22.355856201171875Q99.36969921875 20.732 103.57398022460937 20.732Q107.878548828125 20.732 111.14554553222656 22.394428100585937Q114.41254223632812 24.056856201171875 116.24468273925781 27.377856201171873Q118.0768232421875 30.698856201171875 118.0768232421875 35.744Q118.0768232421875 40.92028759765625 116.1675389404297 44.25671569824219Q114.25825463867187 47.59314379882812 110.95268603515625 49.17457189941406Q107.64711743164062 50.756 103.504548828125 50.756ZM103.75140502929688 44.39171240234375Q105.57968603515624 44.39171240234375 106.80625463867187 43.47756860351562Q108.0328232421875 42.5634248046875 108.65767944335937 40.7274248046875Q109.28253564453125 38.8914248046875 109.28253564453125 36.260856201171876Q109.28253564453125 33.422 108.60367944335937 31.474143798828123Q107.9248232421875 29.52628759765625 106.61725463867188 28.48485949707031Q105.30968603515625 27.443431396484375 103.33483642578125 27.443431396484375Q101.56055541992188 27.443431396484375 100.31855871582032 28.3575751953125Q99.07656201171875 29.271718994140624 98.45170581054688 31.107718994140626Q97.826849609375 32.943718994140625 97.826849609375 35.628287597656254Q97.826849609375 39.9174248046875 99.3812744140625 42.15456860351563Q100.93569921875 44.39171240234375 103.75140502929688 44.39171240234375Z" fill="#2FD480"/><g stroke="#2FD480" stroke-width="2.4" stroke-linecap="round" opacity=".75"><line x1="120" y1="74" x2="134" y2="74"/><line x1="114" y1="80" x2="130" y2="80"/><line x1="126" y1="68" x2="138" y2="68"/></g>
<path d="M4 84 C70 80 150 80 232 82" stroke="#2FD480" stroke-width="4" fill="none" stroke-linecap="round"/>
<path d="M170 64 C156 56 144 58 136 68 C144 68 150 71 156 73 C162 70 167 68 171 68 Z" fill="#2FD480"/>
<path d="M150 80 L150 73 Q150 69 155 69 L159 69 L165 61 L167 61 L169 70 L187 70 L190 61 L192 61 L198 69 L209 69 Q214 69 214 74 L214 77 Q214 80 209 80 Z" fill="#00A65A"/>
<circle cx="164" cy="80" r="7.5" fill="#FFFFFF"/><circle cx="164" cy="80" r="3" fill="#0B2920"/>
<circle cx="202" cy="80" r="7.5" fill="#FFFFFF"/><circle cx="202" cy="80" r="3" fill="#0B2920"/>
<path d="M173 70 L171 62 Q173 59 177 59 Q181 59 183 62 L181 70 Z" fill="#0B2920"/>
<circle cx="177" cy="54" r="6.5" fill="#FFE0BE"/>
<circle cx="174.6" cy="53" r="0.95" fill="#0B2920"/><circle cx="179.4" cy="53" r="0.95" fill="#0B2920"/>
<path d="M174 56.4 Q177 59 180 56.4" stroke="#0B2920" stroke-width="1.3" fill="none" stroke-linecap="round"/><path d="M9.098599731445312 103.17159838867188Q8.00960107421875 103.17159838867188 7.182402282714843 102.66999865722656Q6.355203491210937 102.16839892578125 5.893204162597656 101.26529919433594Q5.431204833984375 100.36219946289063 5.431204833984375 99.161Q5.431204833984375 97.95980053710937 5.893204162597656 97.06220080566406Q6.355203491210937 96.16460107421875 7.182402282714843 95.66300134277344Q8.00960107421875 95.16140161132813 9.098599731445312 95.16140161132813Q10.319597045898437 95.16140161132813 11.206195434570311 95.76970013427734Q12.092793823242186 96.37799865722656 12.479993286132812 97.44939624023438L11.142411010742187 97.93559033203125Q10.896009399414062 97.266787109375 10.371306579589843 96.89388549804687Q9.846603759765625 96.52098388671875 9.098599731445312 96.52098388671875Q8.416595703125 96.52098388671875 7.909492614746093 96.84218603515626Q7.4023895263671875 97.16338818359375 7.128487915039063 97.75079180908203Q6.854586303710938 98.33819543457031 6.854586303710938 99.161Q6.854586303710938 99.9838045654297 7.128487915039063 100.57670819091797Q7.4023895263671875 101.16961181640625 7.909492614746093 101.49081396484374Q8.416595703125 101.81201611328125 9.098599731445312 101.81201611328125Q9.846603759765625 101.81201611328125 10.371306579589843 101.43691436767577Q10.896009399414062 101.0618126220703 11.142411010742187 100.39740966796874L12.479993286132812 100.87920349121094Q12.092793823242186 101.93960107421876 11.206195434570311 102.55559973144531Q10.319597045898437 103.17159838867188 9.098599731445312 103.17159838867188ZM18.387004028320312 103.0 21.47139758300781 95.333H22.538385498046875L25.61617932128906 103.0H24.065199462890625L22.012591674804685 97.43177099609375L19.942384155273437 103.0ZM20.410987915039062 101.49958764648437 20.853182006835937 100.22800402832031H23.15660107421875L23.620795166015625 101.49958764648437ZM31.950005371093752 103.0V95.333H34.482195434570315Q35.41499328613281 95.333 35.98919274902344 95.60469946289062Q36.56339221191406 95.87639892578125 36.83179248046875 96.37689825439453Q37.100192749023435 96.87739758300782 37.100192749023435 97.55499731445312Q37.100192749023435 98.61099328613281 36.497394897460936 99.18629248046875Q35.894597045898436 99.76159167480469 34.783599731445314 99.83419274902344Q34.53280322265625 99.83859301757812 34.26880456542969 99.83859301757812Q34.004805908203124 99.83859301757812 33.81780456542969 99.83859301757812H33.37338684082032V103.0ZM36.114610473632816 103.0 34.18960778808594 99.67799462890625 35.648188720703125 99.50419677734375 37.76018872070313 103.0ZM33.37338684082032 98.57140966796875H34.33699731445313Q34.70440295410156 98.57140966796875 35.00580590820313 98.4889076538086Q35.30720886230469 98.40640563964844 35.49201007080079 98.18970281982422Q35.67681127929688 97.973 35.67681127929688 97.57259704589843Q35.67681127929688 97.16779382324219 35.49201007080079 96.95989086914062Q35.30720886230469 96.75198791503907 35.003605773925784 96.67828576660156Q34.70000268554688 96.60458361816406 34.33699731445313 96.60458361816406H33.37338684082032ZM52.54200537109375 103.0V95.333H57.66800134277344V96.60458361816406H53.965386840820315V98.43060913085938H57.18179919433594V99.70219274902344H53.965386840820315V103.0ZM64.18000537109374 103.0V95.333H65.6033868408203V103.0ZM72.57300537109374 103.0V95.333H74.03818737792969L77.61540161132812 101.13882470703125H77.25680725097656V95.333H78.68018872070313V103.0H77.1996064453125L73.64439221191407 97.18317529296876H73.9963868408203V103.0ZM85.0030040283203 103.0 88.0873975830078 95.333H89.15438549804686L92.23217932128905 103.0H90.68119946289062L88.62859167480468 97.43177099609375L86.55838415527343 103.0ZM87.02698791503906 101.49958764648437 87.46918200683594 100.22800402832031H89.77260107421874L90.23679516601561 101.49958764648437ZM98.56600537109374 103.0V95.333H100.03118737792968L103.60840161132812 101.13882470703125H103.24980725097656V95.333H104.67318872070312V103.0H103.19260644531249L99.63739221191406 97.18317529296876H99.9893868408203V103.0ZM115.0065997314453 103.17159838867188Q113.91760107421874 103.17159838867188 113.09040228271483 102.66999865722656Q112.26320349121093 102.16839892578125 111.80120416259766 101.26529919433594Q111.33920483398437 100.36219946289063 111.33920483398437 99.161Q111.33920483398437 97.95980053710937 111.80120416259766 97.06220080566406Q112.26320349121093 96.16460107421875 113.09040228271483 95.66300134277344Q113.91760107421874 95.16140161132813 115.0065997314453 95.16140161132813Q116.22759704589842 95.16140161132813 117.11419543457029 95.76970013427734Q118.00079382324218 96.37799865722656 118.3879932861328 97.44939624023438L117.05041101074218 97.93559033203125Q116.80400939941404 97.266787109375 116.27930657958983 96.89388549804687Q115.75460375976562 96.52098388671875 115.0065997314453 96.52098388671875Q114.32459570312498 96.52098388671875 113.81749261474607 96.84218603515626Q113.31038952636717 97.16338818359375 113.03648791503905 97.75079180908203Q112.76258630371092 98.33819543457031 112.76258630371092 99.161Q112.76258630371092 99.9838045654297 113.03648791503905 100.57670819091797Q113.31038952636717 101.16961181640625 113.81749261474607 101.49081396484374Q114.32459570312498 101.81201611328125 115.0065997314453 101.81201611328125Q115.75460375976562 101.81201611328125 116.27930657958983 101.43691436767577Q116.80400939941404 101.0618126220703 117.05041101074218 100.39740966796874L118.3879932861328 100.87920349121094Q118.00079382324218 101.93960107421876 117.11419543457029 102.55559973144531Q116.22759704589842 103.17159838867188 115.0065997314453 103.17159838867188ZM124.94400537109374 103.0V95.333H130.05240295410155V96.60458361816406H126.3673868408203V98.43060913085938H129.8037978515625V99.70219274902344H126.3673868408203V101.72841638183594H130.05240295410155V103.0Z" fill="#2FD480"/></svg>