<svg xmlns="http://www.w3.org/2000/svg" viewBox="0 0 132 56"><path d="M27.52650927734375 50.0V14.36H36.243653076171874V50.0ZM5.08568603515625 50.0V14.36H13.802829833984374V50.0ZM10.879137207031249 35.6205751953125V28.46171240234375H31.468529052734375V35.6205751953125ZM53.84511743164063 50.756Q50.0728232421875 50.756 47.29953894042969 49.7184248046875Q44.52625463867188 48.680849609375 42.68254553222657 46.76384631347656Q40.83883642578125 44.846843017578124 39.92469921875001 42.193130615234374Q39.010562011718754 39.539418212890624 39.010562011718754 36.30714379882812Q39.010562011718754 33.04400659179687 39.91698681640625 30.205150390625Q40.823411621093754 27.366294189453125 42.60926452636719 25.241006591796875Q44.39511743164063 23.115718994140625 47.07582983398438 21.92385949707031Q49.75654223632813 20.732 53.27426123046875 20.732Q56.791980224609375 20.732 59.410980224609375 21.908431396484374Q62.029980224609375 23.08486279296875 63.688548828125 25.291150390625Q65.34711743164063 27.49743798828125 66.00668273925781 30.544578491210935Q66.666248046875 33.59171899414062 66.25738525390625 37.35628100585937L44.61884301757813 37.587712402343755V32.95913720703125L60.57963989257813 32.750849609374995L58.30396044921875 35.1345751953125Q58.65881665039063 32.527150390624996 58.084107543945315 30.826150390624996Q57.5093984375 29.125150390625 56.27511743164062 28.295862792968748Q55.04083642578125 27.4665751953125 53.335973632812504 27.4665751953125Q51.39968603515625 27.4665751953125 50.05740502929687 28.4925751953125Q48.715124023437504 29.5185751953125 48.04398681640625 31.427859497070312Q47.372849609375 33.33714379882812 47.372849609375 36.0294248046875Q47.372849609375 40.434281005859376 49.10855541992188 42.43228100585938Q50.84426123046875 44.43028100585938 53.837405029296875 44.43028100585938Q55.225973632812504 44.43028100585938 56.15168603515625 44.059996704101565Q57.0773984375 43.68971240234375 57.66368273925781 43.06871240234375Q58.24996704101562 42.447712402343754 58.54310754394531 41.63385290527344Q58.836248046875 40.819993408203125 58.93652905273438 39.93284301757812L66.68167944335937 41.07453564453125Q66.50426123046876 42.97996044921875 65.72898352050782 44.71567944335938Q64.95370581054688 46.4513984375 63.441709106445316 47.80912072753907Q61.92971240234375 49.166843017578124 59.57299340820313 49.96142150878906Q57.216274414062504 50.756 53.84511743164063 50.756ZM69.05511743164062 50.0V35.82881665039062V21.488H76.33741162109375L76.42998022460938 31.8406015625H77.26311083984376Q77.61796704101563 27.767444580078124 78.62467944335938 25.36443798828125Q79.63139184570313 22.961431396484375 81.37095385742188 21.900715698242188Q83.11051586914063 20.84 85.57135229492188 20.84Q86.23479028320313 20.84 86.97922827148437 20.97114709472656Q87.72366625976562 21.102294189453126 88.56452905273437 21.41858837890625L88.19424145507813 30.860882568359376Q87.19137866210937 30.344019775390624 86.13451916503907 30.116444580078124Q85.07765966796876 29.888869384765623 84.20594067382814 29.888869384765623Q82.26194726562501 29.888869384765623 80.87338195800783 30.768300781249998Q79.48481665039063 31.647732177734376 78.70953564453126 33.39887927246094Q77.93425463867189 35.1500263671875 77.7799736328125 37.75745776367187V50.0Z" fill="#0B2920"/><path d="M103.504548828125 50.756Q99.24626782226562 50.756 95.98312731933594 49.09357189941406Q92.71998681640625 47.431143798828124 90.8762744140625 44.09471569824218Q89.03256201171875 40.75828759765625 89.03256201171875 35.73628759765625Q89.03256201171875 30.62171240234375 90.91099011230469 27.30071240234375Q92.78941821289062 23.97971240234375 96.07955871582031 22.355856201171875Q99.36969921875 20.732 103.57398022460937 20.732Q107.878548828125 20.732 111.14554553222656 22.394428100585937Q114.41254223632812 24.056856201171875 116.24468273925781 27.377856201171873Q118.0768232421875 30.698856201171875 118.0768232421875 35.744Q118.0768232421875 40.92028759765625 116.1675389404297 44.25671569824219Q114.25825463867187 47.59314379882812 110.95268603515625 49.17457189941406Q107.64711743164062 50.756 103.504548828125 50.756ZM103.75140502929688 44.39171240234375Q105.57968603515624 44.39171240234375 106.80625463867187 43.47756860351562Q108.0328232421875 42.5634248046875 108.65767944335937 40.7274248046875Q109.28253564453125 38.8914248046875 109.28253564453125 36.260856201171876Q109.28253564453125 33.422 108.60367944335937 31.474143798828123Q107.9248232421875 29.52628759765625 106.61725463867188 28.48485949707031Q105.30968603515625 27.443431396484375 103.33483642578125 27.443431396484375Q101.56055541992188 27.443431396484375 100.31855871582032 28.3575751953125Q99.07656201171875 29.271718994140624 98.45170581054688 31.107718994140626Q97.826849609375 32.943718994140625 97.826849609375 35.628287597656254Q97.826849609375 39.9174248046875 99.3812744140625 42.15456860351563Q100.93569921875 44.39171240234375 103.75140502929688 44.39171240234375Z" fill="#00A65A"/></svg>