<svg xmlns="http://www.w3.org/2000/svg" viewBox="0 0 96 112">
    <path d="M30 52 C16 56 11 74 18 90 C23 79 30 77 35 79 L36 58 Z" fill="#2FD480"/>
    <rect x="37" y="82" width="7.5" height="22" rx="3.7" fill="#0B2920"/><rect x="48.5" y="82" width="7.5" height="22" rx="3.7" fill="#0B2920"/>
    <ellipse cx="40" cy="105" rx="6" ry="3" fill="#0B2920"/><ellipse cx="53" cy="105" rx="6" ry="3" fill="#0B2920"/>
    <path d="M33 58 Q33 51 46.5 51 Q60 51 60 58 L60 84 Q60 88 55 88 L38 88 Q33 88 33 84 Z" fill="#00A65A"/>
    <path d="M46.5 60 l2.6 2 -1 3 -3.2 0 -1 -3 z" fill="#fff"/>
    <path d="M34 60 Q26 66 28 78 Q29 82 33 80.5 Q31 69 38 64 Z" fill="#00A65A"/><circle cx="30" cy="79" r="4" fill="#FFE0BE"/>
    <rect x="42.5" y="44" width="8" height="9" fill="#FFE0BE"/><path d="M58 57 Q72 60 76 76 L71 79 Q65 65 56 61 Z" fill="#00A65A"/><circle cx="74" cy="78" r="4.4" fill="#FFE0BE"/><path d="M72 81 q1 5 4 4 q0 -3 -1 -5 z" fill="#FFE0BE"/><circle cx="46" cy="32" r="13" fill="#FFE0BE"/><path d="M33 31 Q33 16 46 16 Q59 16 59 31 Q58 22 55 23 Q48 20 44 22 Q36 21 33 31 Z" fill="#0B2920"/><path d="M47 17 Q52 13 55 18 Q51 17 47 20 Z" fill="#0B2920"/><circle cx="42.6" cy="32" r="1.1" fill="#0B2920"/><circle cx="49.4" cy="32" r="1.1" fill="#0B2920"/><path d="M42.4 35.2 Q46 38.4 49.6 35.2" stroke="#0B2920" stroke-width="1.4" fill="none" stroke-linecap="round"/></svg>